<svg xmlns='http://www.w3.org/2000/svg' version='1.1' width='800.0' height='800.0'>
<g stroke='#1446E6' fill='#1446E6' stroke-width='1' opacity='.7'>
<polygon points="477, 706 778,697 425,508" style="fill:#1446E6; stroke:#1446E6;stroke-width:1" />
</g>
<g stroke='#1446E6' fill='#1446E6' stroke-width='1' opacity='.7'>
<polygon points="477.0, 706.0 778.0,697.0 425.0,508.0" style="fill:#1446E6; stroke:#1446E6;stroke-width:1" />
</g>
<g stroke='#1446E6' fill='#1446E6' stroke-width='1' opacity='.7'>
<polygon points="238.07254710828065, 670.8218971944477 457.27564927611036,877.2970773009196 341.31013716151654,494.04520189781084" style="fill:#1446E6; stroke:#1446E6;stroke-width:1" />
</g>
<g stroke='#1446E6' fill='#1446E6' stroke-width='1' opacity='.7'>
<polygon points="129.17810280555227, 238.07254710828067 -77.29707730091957,457.27564927611036 305.95479810218916,341.31013716151654" style="fill:#1446E6; stroke:#1446E6;stroke-width:1" />
</g>
<g stroke='#1446E6' fill='#1446E6' stroke-width='1' opacity='.7'>
<polygon points="706.0, 322.9999999999999 697.0,22.0 508.0,375.0" style="fill:#1446E6; stroke:#1446E6;stroke-width:1" />
</g>
<g stroke='#1446E6' fill='#1446E6' stroke-width='1' opacity='.7'>
<polygon points="94.0, 477.00000000000017 103.00000000000006,778.0 292.0,425.0" style="fill:#1446E6; stroke:#1446E6;stroke-width:1" />
</g>
<g stroke='#1446E6' fill='#1446E6' stroke-width='1' opacity='.7'>
<polygon points="670.8218971944478, 561.9274528917192 877.2970773009196,342.72435072388953 494.04520189781084,458.68986283848346" style="fill:#1446E6; stroke:#1446E6;stroke-width:1" />
</g>
<g stroke='#1446E6' fill='#1446E6' stroke-width='1' opacity='.7'>
<polygon points="561.9274528917192, 129.1781028055521 342.7243507238894,-77.29707730091957 458.68986283848346,305.95479810218916" style="fill:#1446E6; stroke:#1446E6;stroke-width:1" />
</g>
<g stroke='#1446E6' fill='#1446E6' stroke-width='1' opacity='.7'>
<polygon points="322.99999999999966, 94.0 21.999999999999773,103.00000000000028 375.0,292.0" style="fill:#1446E6; stroke:#1446E6;stroke-width:1" />
</g>
<g stroke='#972CB6' fill='#972CB6' stroke-width='1' opacity='.7'>
<polygon points="741, 711 561,509 757,491" style="fill:#972CB6; stroke:#972CB6;stroke-width:1" />
</g>
<g stroke='#972CB6' fill='#972CB6' stroke-width='1' opacity='.7'>
<polygon points="741.0, 711.0 561.0,509.0 757.0,491.0" style="fill:#972CB6; stroke:#972CB6;stroke-width:1" />
</g>
<g stroke='#972CB6' fill='#972CB6' stroke-width='1' opacity='.7'>
<polygon points="421.2132034355965, 861.033621333629 436.7695526217005,590.9188309203678 588.0904037956217,716.7838379715732" style="fill:#972CB6; stroke:#972CB6;stroke-width:1" />
</g>
<g stroke='#972CB6' fill='#972CB6' stroke-width='1' opacity='.7'>
<polygon points="-61.03362133362896, 421.2132034355965 209.08116907963222,436.7695526217005 83.21616202842677,588.0904037956217" style="fill:#972CB6; stroke:#972CB6;stroke-width:1" />
</g>
<g stroke='#972CB6' fill='#972CB6' stroke-width='1' opacity='.7'>
<polygon points="710.9999999999999, 58.99999999999994 508.99999999999994,239.00000000000003 490.9999999999999,43.0" style="fill:#972CB6; stroke:#972CB6;stroke-width:1" />
</g>
<g stroke='#972CB6' fill='#972CB6' stroke-width='1' opacity='.7'>
<polygon points="89.00000000000017, 741.0000000000001 291.00000000000006,561.0 309.00000000000017,757.0" style="fill:#972CB6; stroke:#972CB6;stroke-width:1" />
</g>
<g stroke='#972CB6' fill='#972CB6' stroke-width='1' opacity='.7'>
<polygon points="861.033621333629, 378.7867965644033 590.9188309203678,363.23044737829946 716.7838379715731,211.9095962043782" style="fill:#972CB6; stroke:#972CB6;stroke-width:1" />
</g>
<g stroke='#972CB6' fill='#972CB6' stroke-width='1' opacity='.7'>
<polygon points="378.7867965644032, -61.03362133362896 363.2304473782994,209.08116907963222 211.90959620437815,83.21616202842694" style="fill:#972CB6; stroke:#972CB6;stroke-width:1" />
</g>
<g stroke='#972CB6' fill='#972CB6' stroke-width='1' opacity='.7'>
<polygon points="58.99999999999966, 89.0000000000004 238.99999999999991,291.00000000000017 43.0,309.0000000000004" style="fill:#972CB6; stroke:#972CB6;stroke-width:1" />
</g>
<g stroke='#32E3CA' fill='#32E3CA' stroke-width='1' opacity='.7'>
<polygon points="575, 699 491,484 666,655" style="fill:#32E3CA; stroke:#32E3CA;stroke-width:1" />
</g>
<g stroke='#32E3CA' fill='#32E3CA' stroke-width='1' opacity='.7'>
<polygon points="575.0, 699.0 491.0,484.0 666.0,655.0" style="fill:#32E3CA; stroke:#32E3CA;stroke-width:1" />
</g>
<g stroke='#32E3CA' fill='#32E3CA' stroke-width='1' opacity='.7'>
<polygon points="312.31875913286814, 735.1686142824235 404.9497474683059,523.7436867076458 407.7781745930521,768.4026329981913" style="fill:#32E3CA; stroke:#32E3CA;stroke-width:1" />
</g>
<g stroke='#32E3CA' fill='#32E3CA' stroke-width='1' opacity='.7'>
<polygon points="64.8313857175765, 312.31875913286814 276.2563132923542,404.9497474683059 31.59736700180872,407.7781745930521" style="fill:#32E3CA; stroke:#32E3CA;stroke-width:1" />
</g>
<g stroke='#32E3CA' fill='#32E3CA' stroke-width='1' opacity='.7'>
<polygon points="699.0, 224.99999999999997 483.99999999999994,309.0 655.0,133.9999999999999" style="fill:#32E3CA; stroke:#32E3CA;stroke-width:1" />
</g>
<g stroke='#32E3CA' fill='#32E3CA' stroke-width='1' opacity='.7'>
<polygon points="101.0, 575.0 316.00000000000006,491.0 145.00000000000003,666.0000000000002" style="fill:#32E3CA; stroke:#32E3CA;stroke-width:1" />
</g>
<g stroke='#32E3CA' fill='#32E3CA' stroke-width='1' opacity='.7'>
<polygon points="735.1686142824235, 487.6812408671318 523.7436867076458,395.0502525316941 768.4026329981914,392.2218254069477" style="fill:#32E3CA; stroke:#32E3CA;stroke-width:1" />
</g>
<g stroke='#32E3CA' fill='#32E3CA' stroke-width='1' opacity='.7'>
<polygon points="487.68124086713175, 64.8313857175765 395.0502525316941,276.2563132923542 392.22182540694763,31.597367001808607" style="fill:#32E3CA; stroke:#32E3CA;stroke-width:1" />
</g>
<g stroke='#32E3CA' fill='#32E3CA' stroke-width='1' opacity='.7'>
<polygon points="224.99999999999986, 101.00000000000017 309.0,316.00000000000006 133.9999999999996,145.0000000000002" style="fill:#32E3CA; stroke:#32E3CA;stroke-width:1" />
</g>
<g stroke='#BDE3E4' fill='#BDE3E4' stroke-width='1' opacity='.7'>
<polygon points="656, 714 511,651 517,662" style="fill:#BDE3E4; stroke:#BDE3E4;stroke-width:1" />
</g>
<g stroke='#BDE3E4' fill='#BDE3E4' stroke-width='1' opacity='.7'>
<polygon points="656.0, 714.0 511.0,651.0 517.0,662.0" style="fill:#BDE3E4; stroke:#BDE3E4;stroke-width:1" />
</g>
<g stroke='#BDE3E4' fill='#BDE3E4' stroke-width='1' opacity='.7'>
<polygon points="358.98780669118025, 803.050865276332 301.00505063388334,655.9726547895302 297.46951672795063,667.9934700697015" style="fill:#BDE3E4; stroke:#BDE3E4;stroke-width:1" />
</g>
<g stroke='#BDE3E4' fill='#BDE3E4' stroke-width='1' opacity='.7'>
<polygon points="-3.050865276332047, 358.98780669118025 144.02734521046978,301.00505063388334 132.00652993029848,297.46951672795063" style="fill:#BDE3E4; stroke:#BDE3E4;stroke-width:1" />
</g>
<g stroke='#BDE3E4' fill='#BDE3E4' stroke-width='1' opacity='.7'>
<polygon points="714.0, 144.0 651.0,289.0 662.0,282.99999999999994" style="fill:#BDE3E4; stroke:#BDE3E4;stroke-width:1" />
</g>
<g stroke='#BDE3E4' fill='#BDE3E4' stroke-width='1' opacity='.7'>
<polygon points="86.00000000000006, 656.0 149.0,511.0 138.0,517.0000000000001" style="fill:#BDE3E4; stroke:#BDE3E4;stroke-width:1" />
</g>
<g stroke='#BDE3E4' fill='#BDE3E4' stroke-width='1' opacity='.7'>
<polygon points="803.050865276332, 441.01219330881963 655.9726547895302,498.9949493661166 667.9934700697016,502.5304832720493" style="fill:#BDE3E4; stroke:#BDE3E4;stroke-width:1" />
</g>
<g stroke='#BDE3E4' fill='#BDE3E4' stroke-width='1' opacity='.7'>
<polygon points="441.0121933088196, -3.050865276332047 498.99494936611654,144.02734521046975 502.53048327204925,132.00652993029837" style="fill:#BDE3E4; stroke:#BDE3E4;stroke-width:1" />
</g>
<g stroke='#BDE3E4' fill='#BDE3E4' stroke-width='1' opacity='.7'>
<polygon points="143.99999999999983, 86.00000000000023 288.99999999999983,149.00000000000006 282.9999999999998,138.00000000000006" style="fill:#BDE3E4; stroke:#BDE3E4;stroke-width:1" />
</g>
<g stroke='#20A640' fill='#20A640' stroke-width='1' opacity='.7'>
<polygon points="469, 555 785,767 592,734" style="fill:#20A640; stroke:#20A640;stroke-width:1" />
</g>
<g stroke='#20A640' fill='#20A640' stroke-width='1' opacity='.7'>
<polygon points="469.0, 555.0 785.0,767.0 592.0,734.0" style="fill:#20A640; stroke:#20A640;stroke-width:1" />
</g>
<g stroke='#20A640' fill='#20A640' stroke-width='1' opacity='.7'>
<polygon points="339.18881681795693, 558.3919189857867 412.7279220613579,931.7442994522837 299.5908370715103,771.938166904124" style="fill:#20A640; stroke:#20A640;stroke-width:1" />
</g>
<g stroke='#20A640' fill='#20A640' stroke-width='1' opacity='.7'>
<polygon points="241.60808101421333, 339.18881681795693 -131.7442994522837,412.72792206135796 28.061833095875954,299.59083707151035" style="fill:#20A640; stroke:#20A640;stroke-width:1" />
</g>
<g stroke='#20A640' fill='#20A640' stroke-width='1' opacity='.7'>
<polygon points="555.0, 330.99999999999994 766.9999999999999,14.999999999999943 734.0,207.9999999999999" style="fill:#20A640; stroke:#20A640;stroke-width:1" />
</g>
<g stroke='#20A640' fill='#20A640' stroke-width='1' opacity='.7'>
<polygon points="245.0, 469.00000000000006 33.00000000000017,785.0000000000001 66.0,592.0000000000001" style="fill:#20A640; stroke:#20A640;stroke-width:1" />
</g>
<g stroke='#20A640' fill='#20A640' stroke-width='1' opacity='.7'>
<polygon points="558.3919189857867, 460.811183182043 931.7442994522837,387.27207793864187 771.9381669041242,500.40916292848965" style="fill:#20A640; stroke:#20A640;stroke-width:1" />
</g>
<g stroke='#20A640' fill='#20A640' stroke-width='1' opacity='.7'>
<polygon points="460.811183182043, 241.60808101421333 387.27207793864176,-131.7442994522837 500.4091629284896,28.06183309587584" style="fill:#20A640; stroke:#20A640;stroke-width:1" />
</g>
<g stroke='#20A640' fill='#20A640' stroke-width='1' opacity='.7'>
<polygon points="330.9999999999999, 245.00000000000006 14.999999999999659,33.0000000000004 207.99999999999972,66.00000000000006" style="fill:#20A640; stroke:#20A640;stroke-width:1" />
</g>
<g stroke='#A62D32' fill='#A62D32' stroke-width='1' opacity='.7'>
<polygon points="527, 437 599,708 651,602" style="fill:#A62D32; stroke:#A62D32;stroke-width:1" />
</g>
<g stroke='#A62D32' fill='#A62D32' stroke-width='1' opacity='.7'>
<polygon points="527.0, 437.0 599.0,708.0 651.0,602.0" style="fill:#A62D32; stroke:#A62D32;stroke-width:1" />
</g>
<g stroke='#A62D32' fill='#A62D32' stroke-width='1' opacity='.7'>
<polygon points="463.6396103067893, 515.9655121145938 322.9253608506664,758.5031380615796 434.6482322781409,720.319371877506" style="fill:#A62D32; stroke:#A62D32;stroke-width:1" />
</g>
<g stroke='#A62D32' fill='#A62D32' stroke-width='1' opacity='.7'>
<polygon points="284.0344878854062, 463.6396103067893 41.49686193842035,322.9253608506664 79.680628122494,434.6482322781409" style="fill:#A62D32; stroke:#A62D32;stroke-width:1" />
</g>
<g stroke='#A62D32' fill='#A62D32' stroke-width='1' opacity='.7'>
<polygon points="437.0, 273.0 708.0,200.9999999999999 602.0,148.99999999999997" style="fill:#A62D32; stroke:#A62D32;stroke-width:1" />
</g>
<g stroke='#A62D32' fill='#A62D32' stroke-width='1' opacity='.7'>
<polygon points="363.0, 527.0 92.0,599.0000000000001 198.00000000000003,651.0" style="fill:#A62D32; stroke:#A62D32;stroke-width:1" />
</g>
<g stroke='#A62D32' fill='#A62D32' stroke-width='1' opacity='.7'>
<polygon points="515.9655121145938, 336.3603896932107 758.5031380615796,477.0746391493335 720.319371877506,365.3517677218591" style="fill:#A62D32; stroke:#A62D32;stroke-width:1" />
</g>
<g stroke='#A62D32' fill='#A62D32' stroke-width='1' opacity='.7'>
<polygon points="336.3603896932107, 284.0344878854062 477.07463914933345,41.49686193842035 365.35176772185906,79.680628122494" style="fill:#A62D32; stroke:#A62D32;stroke-width:1" />
</g>
<g stroke='#A62D32' fill='#A62D32' stroke-width='1' opacity='.7'>
<polygon points="273.0, 363.0 200.99999999999974,92.00000000000017 148.9999999999999,198.00000000000017" style="fill:#A62D32; stroke:#A62D32;stroke-width:1" />
</g>
<g stroke='#675AEA' fill='#675AEA' stroke-width='1' opacity='.7'>
<polygon points="660, 638 538,730 626,516" style="fill:#675AEA; stroke:#675AEA;stroke-width:1" />
</g>
<g stroke='#675AEA' fill='#675AEA' stroke-width='1' opacity='.7'>
<polygon points="660.0, 638.0 538.0,730.0 626.0,516.0" style="fill:#675AEA; stroke:#675AEA;stroke-width:1" />
</g>
<g stroke='#675AEA' fill='#675AEA' stroke-width='1' opacity='.7'>
<polygon points="415.55634918610406, 752.1391770309007 264.2354980121829,730.9259735953042 477.78174593052023,641.8305191657993" style="fill:#675AEA; stroke:#675AEA;stroke-width:1" />
</g>
<g stroke='#675AEA' fill='#675AEA' stroke-width='1' opacity='.7'>
<polygon points="47.86082296909933, 415.55634918610406 69.07402640469581,264.2354980121829 158.16948083420073,477.78174593052023" style="fill:#675AEA; stroke:#675AEA;stroke-width:1" />
</g>
<g stroke='#675AEA' fill='#675AEA' stroke-width='1' opacity='.7'>
<polygon points="638.0, 139.99999999999994 729.9999999999999,262.0 516.0,173.99999999999997" style="fill:#675AEA; stroke:#675AEA;stroke-width:1" />
</g>
<g stroke='#675AEA' fill='#675AEA' stroke-width='1' opacity='.7'>
<polygon points="162.00000000000003, 660.0000000000001 70.00000000000011,538.0 284.0,626.0" style="fill:#675AEA; stroke:#675AEA;stroke-width:1" />
</g>
<g stroke='#675AEA' fill='#675AEA' stroke-width='1' opacity='.7'>
<polygon points="752.1391770309008, 384.44365081389583 730.9259735953042,535.764501987817 641.8305191657993,322.2182540694797" style="fill:#675AEA; stroke:#675AEA;stroke-width:1" />
</g>
<g stroke='#675AEA' fill='#675AEA' stroke-width='1' opacity='.7'>
<polygon points="384.4436508138958, 47.86082296909922 535.7645019878169,69.07402640469581 322.21825406947966,158.16948083420075" style="fill:#675AEA; stroke:#675AEA;stroke-width:1" />
</g>
<g stroke='#675AEA' fill='#675AEA' stroke-width='1' opacity='.7'>
<polygon points="139.99999999999972, 162.0000000000001 261.9999999999998,70.00000000000023 173.9999999999999,284.0000000000001" style="fill:#675AEA; stroke:#675AEA;stroke-width:1" />
</g>
<g stroke='#ABA072' fill='#ABA072' stroke-width='1' opacity='.7'>
<polygon points="529, 408 780,630 687,625" style="fill:#ABA072; stroke:#ABA072;stroke-width:1" />
</g>
<g stroke='#ABA072' fill='#ABA072' stroke-width='1' opacity='.7'>
<polygon points="529.0, 408.0 780.0,630.0 687.0,625.0" style="fill:#ABA072; stroke:#ABA072;stroke-width:1" />
</g>
<g stroke='#ABA072' fill='#ABA072' stroke-width='1' opacity='.7'>
<polygon points="485.55992052357226, 496.873629022557 506.0660171779822,831.335136523794 443.84062043356596,762.0386719675123" style="fill:#ABA072; stroke:#ABA072;stroke-width:1" />
</g>
<g stroke='#ABA072' fill='#ABA072' stroke-width='1' opacity='.7'>
<polygon points="303.126370977443, 485.55992052357226 -31.33513652379395,506.0660171779822 37.9613280324877,443.84062043356596" style="fill:#ABA072; stroke:#ABA072;stroke-width:1" />
</g>
<g stroke='#ABA072' fill='#ABA072' stroke-width='1' opacity='.7'>
<polygon points="408.0, 271.0 629.9999999999999,19.999999999999943 625.0,113.0" style="fill:#ABA072; stroke:#ABA072;stroke-width:1" />
</g>
<g stroke='#ABA072' fill='#ABA072' stroke-width='1' opacity='.7'>
<polygon points="392.0, 529.0 170.00000000000017,780.0 175.00000000000003,687.0" style="fill:#ABA072; stroke:#ABA072;stroke-width:1" />
</g>
<g stroke='#ABA072' fill='#ABA072' stroke-width='1' opacity='.7'>
<polygon points="496.873629022557, 314.44007947642774 831.3351365237938,293.9339828220177 762.0386719675123,356.159379566434" style="fill:#ABA072; stroke:#ABA072;stroke-width:1" />
</g>
<g stroke='#ABA072' fill='#ABA072' stroke-width='1' opacity='.7'>
<polygon points="314.44007947642774, 303.126370977443 293.9339828220176,-31.335136523793835 356.1593795664339,37.9613280324877" style="fill:#ABA072; stroke:#ABA072;stroke-width:1" />
</g>
<g stroke='#ABA072' fill='#ABA072' stroke-width='1' opacity='.7'>
<polygon points="271.0, 392.00000000000006 19.999999999999886,170.0000000000004 112.99999999999989,175.00000000000017" style="fill:#ABA072; stroke:#ABA072;stroke-width:1" />
</g>
<g stroke='#62A6AE' fill='#62A6AE' stroke-width='1' opacity='.7'>
<polygon points="524, 781 754,508 774,566" style="fill:#62A6AE; stroke:#62A6AE;stroke-width:1" />
</g>
<g stroke='#62A6AE' fill='#62A6AE' stroke-width='1' opacity='.7'>
<polygon points="524.0, 781.0 754.0,508.0 774.0,566.0" style="fill:#62A6AE; stroke:#62A6AE;stroke-width:1" />
</g>
<g stroke='#62A6AE' fill='#62A6AE' stroke-width='1' opacity='.7'>
<polygon points="218.27355723505735, 757.0889244992065 573.9482681718907,726.6833329081849 547.0782104868019,781.8376618407357" style="fill:#62A6AE; stroke:#62A6AE;stroke-width:1" />
</g>
<g stroke='#62A6AE' fill='#62A6AE' stroke-width='1' opacity='.7'>
<polygon points="42.91107550079346, 218.27355723505738 73.31666709181513,573.9482681718907 18.162338159264323,547.0782104868019" style="fill:#62A6AE; stroke:#62A6AE;stroke-width:1" />
</g>
<g stroke='#62A6AE' fill='#62A6AE' stroke-width='1' opacity='.7'>
<polygon points="781.0, 275.9999999999999 507.9999999999999,46.00000000000006 566.0,25.999999999999886" style="fill:#62A6AE; stroke:#62A6AE;stroke-width:1" />
</g>
<g stroke='#62A6AE' fill='#62A6AE' stroke-width='1' opacity='.7'>
<polygon points="19.0, 524.0000000000001 292.00000000000017,754.0 234.00000000000006,774.0000000000001" style="fill:#62A6AE; stroke:#62A6AE;stroke-width:1" />
</g>
<g stroke='#62A6AE' fill='#62A6AE' stroke-width='1' opacity='.7'>
<polygon points="757.0889244992067, 581.7264427649426 726.6833329081849,226.05173182810913 781.8376618407357,252.92178951319792" style="fill:#62A6AE; stroke:#62A6AE;stroke-width:1" />
</g>
<g stroke='#62A6AE' fill='#62A6AE' stroke-width='1' opacity='.7'>
<polygon points="581.7264427649425, 42.91107550079329 226.05173182810907,73.31666709181519 252.92178951319787,18.162338159264323" style="fill:#62A6AE; stroke:#62A6AE;stroke-width:1" />
</g>
<g stroke='#62A6AE' fill='#62A6AE' stroke-width='1' opacity='.7'>
<polygon points="275.9999999999996, 19.000000000000057 45.999999999999886,292.00000000000034 25.999999999999773,234.00000000000026" style="fill:#62A6AE; stroke:#62A6AE;stroke-width:1" />
</g>
<g stroke='#6706C0' fill='#6706C0' stroke-width='1' opacity='.7'>
<polygon points="430, 458 636,701 524,613" style="fill:#6706C0; stroke:#6706C0;stroke-width:1" />
</g>
<g stroke='#6706C0' fill='#6706C0' stroke-width='1' opacity='.7'>
<polygon points="430.0, 458.0 636.0,701.0 524.0,613.0" style="fill:#6706C0; stroke:#6706C0;stroke-width:1" />
</g>
<g stroke='#6706C0' fill='#6706C0' stroke-width='1' opacity='.7'>
<polygon points="380.2010101267767, 462.2253967444162 354.03805922287444,779.716341497176 337.0674964743973,638.2949852598665" style="fill:#6706C0; stroke:#6706C0;stroke-width:1" />
</g>
<g stroke='#6706C0' fill='#6706C0' stroke-width='1' opacity='.7'>
<polygon points="337.7746032555838, 380.2010101267767 20.283658502823982,354.03805922287444 161.7050147401335,337.0674964743973" style="fill:#6706C0; stroke:#6706C0;stroke-width:1" />
</g>
<g stroke='#6706C0' fill='#6706C0' stroke-width='1' opacity='.7'>
<polygon points="458.0, 370.0 701.0,163.99999999999997 613.0,276.0" style="fill:#6706C0; stroke:#6706C0;stroke-width:1" />
</g>
<g stroke='#6706C0' fill='#6706C0' stroke-width='1' opacity='.7'>
<polygon points="342.0, 430.0 99.00000000000006,636.0 187.00000000000003,524.0" style="fill:#6706C0; stroke:#6706C0;stroke-width:1" />
</g>
<g stroke='#6706C0' fill='#6706C0' stroke-width='1' opacity='.7'>
<polygon points="462.2253967444162, 419.7989898732233 779.716341497176,445.9619407771255 638.2949852598665,462.93250352560267" style="fill:#6706C0; stroke:#6706C0;stroke-width:1" />
</g>
<g stroke='#6706C0' fill='#6706C0' stroke-width='1' opacity='.7'>
<polygon points="419.7989898732233, 337.7746032555838 445.96194077712545,20.283658502823982 462.9325035256026,161.7050147401335" style="fill:#6706C0; stroke:#6706C0;stroke-width:1" />
</g>
<g stroke='#6706C0' fill='#6706C0' stroke-width='1' opacity='.7'>
<polygon points="370.0, 342.0 163.99999999999983,99.00000000000017 275.9999999999999,187.0000000000001" style="fill:#6706C0; stroke:#6706C0;stroke-width:1" />
</g>
<g stroke='#E04D88' fill='#E04D88' stroke-width='1' opacity='.7'>
<polygon points="587, 480 461,418 492,737" style="fill:#E04D88; stroke:#E04D88;stroke-width:1" />
</g>
<g stroke='#E04D88' fill='#E04D88' stroke-width='1' opacity='.7'>
<polygon points="587.0, 480.0 461.0,418.0 492.0,737.0" style="fill:#E04D88; stroke:#E04D88;stroke-width:1" />
</g>
<g stroke='#E04D88' fill='#E04D88' stroke-width='1' opacity='.7'>
<polygon points="475.6604255869606, 588.7975105768082 430.40559159102156,455.86143571373725 226.75883860929588,703.348809129029" style="fill:#E04D88; stroke:#E04D88;stroke-width:1" />
</g>
<g stroke='#E04D88' fill='#E04D88' stroke-width='1' opacity='.7'>
<polygon points="211.20248942319176, 475.6604255869606 344.13856428626275,430.40559159102156 96.65119087097105,226.7588386092959" style="fill:#E04D88; stroke:#E04D88;stroke-width:1" />
</g>
<g stroke='#E04D88' fill='#E04D88' stroke-width='1' opacity='.7'>
<polygon points="480.0, 212.99999999999994 418.0,339.0 737.0,307.9999999999999" style="fill:#E04D88; stroke:#E04D88;stroke-width:1" />
</g>
<g stroke='#E04D88' fill='#E04D88' stroke-width='1' opacity='.7'>
<polygon points="320.0, 587.0 382.0,461.0 63.0,492.00000000000017" style="fill:#E04D88; stroke:#E04D88;stroke-width:1" />
</g>
<g stroke='#E04D88' fill='#E04D88' stroke-width='1' opacity='.7'>
<polygon points="588.7975105768082, 324.3395744130394 455.86143571373725,369.59440840897844 703.3488091290291,573.2411613907041" style="fill:#E04D88; stroke:#E04D88;stroke-width:1" />
</g>
<g stroke='#E04D88' fill='#E04D88' stroke-width='1' opacity='.7'>
<polygon points="324.3395744130394, 211.20248942319176 369.59440840897844,344.13856428626275 573.2411613907041,96.65119087097088" style="fill:#E04D88; stroke:#E04D88;stroke-width:1" />
</g>
<g stroke='#E04D88' fill='#E04D88' stroke-width='1' opacity='.7'>
<polygon points="212.99999999999994, 320.00000000000006 339.0,382.00000000000006 307.9999999999997,62.999999999999886" style="fill:#E04D88; stroke:#E04D88;stroke-width:1" />
</g>
<g stroke='#46264E' fill='#46264E' stroke-width='1' opacity='.7'>
<polygon points="401, 680 714,757 570,572" style="fill:#46264E; stroke:#46264E;stroke-width:1" />
</g>
<g stroke='#46264E' fill='#46264E' stroke-width='1' opacity='.7'>
<polygon points="401.0, 680.0 714.0,757.0 570.0,572.0" style="fill:#46264E; stroke:#46264E;stroke-width:1" />
</g>
<g stroke='#46264E' fill='#46264E' stroke-width='1' opacity='.7'>
<polygon points="202.71720804895327, 598.6970055134199 369.5944084089785,874.4686501761734 398.5857864376269,641.8305191657993" style="fill:#46264E; stroke:#46264E;stroke-width:1" />
</g>
<g stroke='#46264E' fill='#46264E' stroke-width='1' opacity='.7'>
<polygon points="201.30299448658013, 202.71720804895327 -74.46865017617336,369.59440840897855 158.16948083420073,398.5857864376269" style="fill:#46264E; stroke:#46264E;stroke-width:1" />
</g>
<g stroke='#46264E' fill='#46264E' stroke-width='1' opacity='.7'>
<polygon points="680.0, 398.99999999999994 756.9999999999999,85.99999999999994 572.0,229.99999999999997" style="fill:#46264E; stroke:#46264E;stroke-width:1" />
</g>
<g stroke='#46264E' fill='#46264E' stroke-width='1' opacity='.7'>
<polygon points="120.0, 401.0000000000001 43.00000000000017,714.0000000000001 228.00000000000003,570.0" style="fill:#46264E; stroke:#46264E;stroke-width:1" />
</g>
<g stroke='#46264E' fill='#46264E' stroke-width='1' opacity='.7'>
<polygon points="598.69700551342, 597.2827919510466 874.4686501761734,430.4055915910212 641.8305191657993,401.41421356237305" style="fill:#46264E; stroke:#46264E;stroke-width:1" />
</g>
<g stroke='#46264E' fill='#46264E' stroke-width='1' opacity='.7'>
<polygon points="597.2827919510466, 201.30299448658 430.4055915910211,-74.46865017617336 401.414213562373,158.16948083420073" style="fill:#46264E; stroke:#46264E;stroke-width:1" />
</g>
<g stroke='#46264E' fill='#46264E' stroke-width='1' opacity='.7'>
<polygon points="398.9999999999998, 120.0 85.99999999999966,43.0000000000004 229.99999999999986,228.0000000000001" style="fill:#46264E; stroke:#46264E;stroke-width:1" />
</g>
<g stroke='#776ED2' fill='#776ED2' stroke-width='1' opacity='.7'>
<polygon points="549, 493 571,569 424,734" style="fill:#776ED2; stroke:#776ED2;stroke-width:1" />
</g>
<g stroke='#776ED2' fill='#776ED2' stroke-width='1' opacity='.7'>
<polygon points="549.0, 493.0 571.0,569.0 424.0,734.0" style="fill:#776ED2; stroke:#776ED2;stroke-width:1" />
</g>
<g stroke='#776ED2' fill='#776ED2' stroke-width='1' opacity='.7'>
<polygon points="439.5979797464467, 571.1198410471445 401.4142135623731,640.4163056034262 180.7968978321703,653.144227664784" style="fill:#776ED2; stroke:#776ED2;stroke-width:1" />
</g>
<g stroke='#776ED2' fill='#776ED2' stroke-width='1' opacity='.7'>
<polygon points="228.88015895285548, 439.5979797464467 159.58369439657383,401.4142135623731 146.855772335216,180.79689783217032" style="fill:#776ED2; stroke:#776ED2;stroke-width:1" />
</g>
<g stroke='#776ED2' fill='#776ED2' stroke-width='1' opacity='.7'>
<polygon points="493.0, 250.99999999999997 569.0,228.99999999999997 734.0,375.99999999999994" style="fill:#776ED2; stroke:#776ED2;stroke-width:1" />
</g>
<g stroke='#776ED2' fill='#776ED2' stroke-width='1' opacity='.7'>
<polygon points="307.0, 549.0 231.00000000000003,571.0 66.0,424.0000000000001" style="fill:#776ED2; stroke:#776ED2;stroke-width:1" />
</g>
<g stroke='#776ED2' fill='#776ED2' stroke-width='1' opacity='.7'>
<polygon points="571.1198410471445, 360.4020202535533 640.4163056034262,398.58578643762684 653.1442276647841,619.2031021678297" style="fill:#776ED2; stroke:#776ED2;stroke-width:1" />
</g>
<g stroke='#776ED2' fill='#776ED2' stroke-width='1' opacity='.7'>
<polygon points="360.40202025355325, 228.88015895285548 398.5857864376268,159.58369439657383 619.2031021678297,146.85577233521585" style="fill:#776ED2; stroke:#776ED2;stroke-width:1" />
</g>
<g stroke='#776ED2' fill='#776ED2' stroke-width='1' opacity='.7'>
<polygon points="250.9999999999999, 307.0000000000001 228.99999999999986,231.0000000000001 375.9999999999998,65.99999999999994" style="fill:#776ED2; stroke:#776ED2;stroke-width:1" />
</g>
<g stroke='#A44413' fill='#A44413' stroke-width='1' opacity='.7'>
<polygon points="442, 505 592,592 560,675" style="fill:#A44413; stroke:#A44413;stroke-width:1" />
</g>
<g stroke='#A44413' fill='#A44413' stroke-width='1' opacity='.7'>
<polygon points="442.0, 505.0 592.0,592.0 560.0,675.0" style="fill:#A44413; stroke:#A44413;stroke-width:1" />
</g>
<g stroke='#A44413' fill='#A44413' stroke-width='1' opacity='.7'>
<polygon points="355.4522727852475, 503.9446968344225 400.0,671.5290039756343 318.68272016354706,707.5914498161482" style="fill:#A44413; stroke:#A44413;stroke-width:1" />
</g>
<g stroke='#A44413' fill='#A44413' stroke-width='1' opacity='.7'>
<polygon points="296.0553031655775, 355.4522727852475 128.47099602436572,400.0 92.40855018385184,318.68272016354706" style="fill:#A44413; stroke:#A44413;stroke-width:1" />
</g>
<g stroke='#A44413' fill='#A44413' stroke-width='1' opacity='.7'>
<polygon points="505.0, 358.0 592.0,207.99999999999997 675.0,239.99999999999997" style="fill:#A44413; stroke:#A44413;stroke-width:1" />
</g>
<g stroke='#A44413' fill='#A44413' stroke-width='1' opacity='.7'>
<polygon points="295.0, 442.0 208.00000000000003,592.0 125.0,560.0" style="fill:#A44413; stroke:#A44413;stroke-width:1" />
</g>
<g stroke='#A44413' fill='#A44413' stroke-width='1' opacity='.7'>
<polygon points="503.94469683442253, 444.54772721475246 671.5290039756343,399.99999999999994 707.5914498161483,481.31727983645294" style="fill:#A44413; stroke:#A44413;stroke-width:1" />
</g>
<g stroke='#A44413' fill='#A44413' stroke-width='1' opacity='.7'>
<polygon points="444.54772721475246, 296.05530316557747 399.9999999999999,128.47099602436572 481.3172798364529,92.40855018385173" style="fill:#A44413; stroke:#A44413;stroke-width:1" />
</g>
<g stroke='#A44413' fill='#A44413' stroke-width='1' opacity='.7'>
<polygon points="357.99999999999994, 295.0 207.99999999999986,208.0000000000001 239.99999999999983,125.0" style="fill:#A44413; stroke:#A44413;stroke-width:1" />
</g>
<g stroke='#2B379D' fill='#2B379D' stroke-width='1' opacity='.7'>
<polygon points="509, 465 420,593 675,679" style="fill:#2B379D; stroke:#2B379D;stroke-width:1" />
</g>
<g stroke='#2B379D' fill='#2B379D' stroke-width='1' opacity='.7'>
<polygon points="509.0, 465.0 420.0,593.0 675.0,679.0" style="fill:#2B379D; stroke:#2B379D;stroke-width:1" />
</g>
<g stroke='#2B379D' fill='#2B379D' stroke-width='1' opacity='.7'>
<polygon points="431.1126983722081, 523.0365799264592 277.6705268547273,550.6137443927346 397.17157287525384,791.7371567773473" style="fill:#2B379D; stroke:#2B379D;stroke-width:1" />
</g>
<g stroke='#2B379D' fill='#2B379D' stroke-width='1' opacity='.7'>
<polygon points="276.96342007354076, 431.1126983722081 249.3862556072654,277.6705268547273 8.262843222652691,397.17157287525384" style="fill:#2B379D; stroke:#2B379D;stroke-width:1" />
</g>
<g stroke='#2B379D' fill='#2B379D' stroke-width='1' opacity='.7'>
<polygon points="464.99999999999994, 291.0 593.0,380.0 679.0,125.0" style="fill:#2B379D; stroke:#2B379D;stroke-width:1" />
</g>
<g stroke='#2B379D' fill='#2B379D' stroke-width='1' opacity='.7'>
<polygon points="335.00000000000006, 509.0 207.0,420.0 121.00000000000006,675.0" style="fill:#2B379D; stroke:#2B379D;stroke-width:1" />
</g>
<g stroke='#2B379D' fill='#2B379D' stroke-width='1' opacity='.7'>
<polygon points="523.0365799264592, 368.8873016277919 550.6137443927346,522.3294731452727 791.7371567773473,402.8284271247461" style="fill:#2B379D; stroke:#2B379D;stroke-width:1" />
</g>
<g stroke='#2B379D' fill='#2B379D' stroke-width='1' opacity='.7'>
<polygon points="368.8873016277919, 276.96342007354076 522.3294731452727,249.38625560726538 402.82842712474604,8.262843222652691" style="fill:#2B379D; stroke:#2B379D;stroke-width:1" />
</g>
<g stroke='#2B379D' fill='#2B379D' stroke-width='1' opacity='.7'>
<polygon points="291.0, 335.00000000000006 379.99999999999994,207.00000000000003 124.99999999999983,121.00000000000017" style="fill:#2B379D; stroke:#2B379D;stroke-width:1" />
</g>
<g stroke='#54CC82' fill='#54CC82' stroke-width='1' opacity='.7'>
<polygon points="667, 593 472,645 518,676" style="fill:#54CC82; stroke:#54CC82;stroke-width:1" />
</g>
<g stroke='#54CC82' fill='#54CC82' stroke-width='1' opacity='.7'>
<polygon points="667.0, 593.0 472.0,645.0 518.0,676.0" style="fill:#54CC82; stroke:#54CC82;stroke-width:1" />
</g>
<g stroke='#54CC82' fill='#54CC82' stroke-width='1' opacity='.7'>
<polygon points="452.32590180780454, 725.2691193458119 277.6705268547273,624.1528496361356 288.2771285725255,678.6000717874997" style="fill:#54CC82; stroke:#54CC82;stroke-width:1" />
</g>
<g stroke='#54CC82' fill='#54CC82' stroke-width='1' opacity='.7'>
<polygon points="74.73088065418813, 452.32590180780454 175.84715036386444,277.6705268547273 121.3999282125003,288.2771285725255" style="fill:#54CC82; stroke:#54CC82;stroke-width:1" />
</g>
<g stroke='#54CC82' fill='#54CC82' stroke-width='1' opacity='.7'>
<polygon points="593.0, 132.99999999999994 645.0,328.0 676.0,282.0" style="fill:#54CC82; stroke:#54CC82;stroke-width:1" />
</g>
<g stroke='#54CC82' fill='#54CC82' stroke-width='1' opacity='.7'>
<polygon points="207.00000000000003, 667.0 155.0,472.0 124.0,518.0" style="fill:#54CC82; stroke:#54CC82;stroke-width:1" />
</g>
<g stroke='#54CC82' fill='#54CC82' stroke-width='1' opacity='.7'>
<polygon points="725.2691193458119, 347.6740981921954 624.1528496361357,522.3294731452727 678.6000717874997,511.7228714274745" style="fill:#54CC82; stroke:#54CC82;stroke-width:1" />
</g>
<g stroke='#54CC82' fill='#54CC82' stroke-width='1' opacity='.7'>
<polygon points="347.67409819219534, 74.73088065418813 522.3294731452727,175.8471503638643 511.72287142747444,121.3999282125003" style="fill:#54CC82; stroke:#54CC82;stroke-width:1" />
</g>
<g stroke='#54CC82' fill='#54CC82' stroke-width='1' opacity='.7'>
<polygon points="132.9999999999999, 207.00000000000017 327.99999999999983,154.99999999999994 281.9999999999999,124.00000000000011" style="fill:#54CC82; stroke:#54CC82;stroke-width:1" />
</g>
</svg>
